<?xml version="1.0" standalone="no"?>
<!DOCTYPE svg PUBLIC "-//W3C//DTD SVG 20010904//EN"
 "http://www.w3.org/TR/2001/REC-SVG-20010904/DTD/svg10.dtd">
<svg version="1.0" xmlns="http://www.w3.org/2000/svg"
 width="471.000000pt" height="471.000000pt" viewBox="0 0 471.000000 471.000000"
 preserveAspectRatio="xMidYMid meet">
<metadata>
Created by potrace 1.14, written by Peter Selinger 2001-2017
</metadata>
<g transform="translate(0.000000,471.000000) scale(0.100000,-0.100000)"
fill="#000000" stroke="none">
<path d="M3935 4450 c-106 -31 -102 -30 -193 -72 -67 -31 -158 -89 -232 -147
-53 -41 -240 -228 -290 -290 -19 -24 -42 -51 -50 -61 -8 -10 -24 -29 -34 -42
-100 -121 -234 -263 -302 -316 -55 -44 -68 -47 -120 -22 -87 40 -200 59 -364
61 -146 2 -278 -21 -364 -62 -22 -11 -45 -19 -51 -19 -41 0 -202 156 -417 405
-84 98 -205 211 -278 261 -136 92 -325 161 -490 179 -159 18 -430 9 -492 -16
-30 -12 -57 -76 -103 -244 -15 -55 -29 -107 -32 -115 -3 -8 -7 -22 -8 -30 -1
-8 -14 -76 -29 -150 -15 -74 -29 -155 -32 -180 -7 -73 -12 -105 -14 -105 -1 0
-3 -22 -4 -50 -2 -27 -6 -106 -10 -175 -16 -264 -3 -628 29 -830 2 -14 7 -45
10 -70 33 -243 105 -558 140 -607 16 -23 53 -43 119 -64 72 -22 390 -16 499
10 35 8 59 0 38 -14 -6 -3 -38 -60 -72 -128 -135 -266 -252 -468 -411 -715
-90 -139 -178 -303 -178 -331 0 -49 109 -48 270 4 116 37 199 65 295 101 228
83 441 154 462 154 32 0 178 -78 383 -205 198 -122 384 -221 436 -231 48 -9
67 9 59 55 -3 20 -30 122 -60 226 -116 411 -178 735 -202 1046 -11 145 -6 609
6 609 3 0 37 -20 75 -45 129 -84 293 -127 461 -120 55 2 114 6 130 10 138 28
248 71 286 111 28 30 49 31 51 2 1 -13 3 -41 6 -63 13 -108 6 -490 -13 -670
-5 -47 -17 -179 -18 -192 0 -7 -3 -13 -6 -13 -3 0 -6 -15 -7 -33 0 -17 -4 -50
-8 -72 -4 -22 -7 -47 -8 -55 0 -8 -4 -36 -9 -62 -5 -26 -11 -76 -15 -110 -3
-35 -8 -66 -11 -71 -2 -4 -6 -24 -8 -45 -9 -77 -32 -227 -35 -227 -4 0 -12
-125 -13 -205 -1 -149 34 -192 126 -155 91 36 263 151 529 354 153 116 163
117 327 30 505 -270 675 -335 726 -279 24 26 16 109 -21 211 -23 65 -169 397
-279 634 -20 44 -59 127 -85 185 -27 58 -73 160 -104 227 -31 67 -56 126 -56
131 0 4 39 0 88 -9 48 -10 119 -21 157 -24 39 -4 72 -8 75 -10 3 -2 55 -6 116
-10 107 -6 112 -6 138 17 14 13 35 49 46 80 19 55 84 303 94 359 2 14 13 73
25 130 25 128 48 296 58 426 18 223 6 703 -22 893 -42 283 -115 588 -171 707
-19 39 -37 59 -73 82 -118 72 -330 100 -466 61z m-872 -2313 c26 -17 47 -31
47 -32 0 -6 -51 9 -56 16 -3 5 -14 9 -24 9 -10 0 -23 6 -27 13 -4 7 -23 23
-40 36 -18 12 -33 27 -33 32 0 9 24 -4 133 -74z m-1413 -1 c0 -2 -8 -10 -17
-17 -16 -13 -17 -12 -4 4 13 16 21 21 21 13z m-40 -30 c0 -2 -12 -11 -27 -20
l-28 -17 24 20 c23 21 31 25 31 17z m1566 -47 c3 -6 -5 -3 -20 6 -14 10 -26
19 -26 22 0 7 39 -17 46 -28z m-1626 6 c0 -13 -306 -205 -326 -205 -8 0 73 52
169 108 16 9 57 36 90 59 65 45 67 46 67 38z m1775 -103 c-3 -3 -11 0 -18 7
-9 10 -8 11 6 5 10 -3 15 -9 12 -12z m80 -40 c-3 -3 -11 0 -18 7 -9 10 -8 11
6 5 10 -3 15 -9 12 -12z m120 -52 c3 -6 -1 -7 -9 -4 -18 7 -21 14 -7 14 6 0
13 -4 16 -10z m-2315 -15 c0 -2 -10 -10 -22 -16 -21 -11 -22 -11 -9 4 13 16
31 23 31 12z m2360 -5 c8 -5 11 -10 5 -10 -5 0 -17 5 -25 10 -8 5 -10 10 -5
10 6 0 17 -5 25 -10z m50 -20 c8 -5 11 -10 5 -10 -5 0 -17 5 -25 10 -8 5 -10
10 -5 10 6 0 17 -5 25 -10z"/>
</g>
</svg>
